<svg width="37" height="37" viewBox="0 0 37 37" fill="none" xmlns="http://www.w3.org/2000/svg">
<path d="M1 0.25C0.585786 0.25 0.25 0.585786 0.25 1C0.25 1.41421 0.585786 1.75 1 1.75V0.25ZM5.1791 1L5.90352 0.805774C5.81562 0.477941 5.51852 0.25 5.1791 0.25V1ZM11.9701 26.3289L11.2457 26.5231C11.3428 26.8851 11.6922 27.1199 12.0641 27.073L11.9701 26.3289ZM32.8657 23.6905L32.9596 24.4345C33.2783 24.3943 33.536 24.1556 33.6004 23.8409L32.8657 23.6905ZM36 8.38759L36.7347 8.53808C36.78 8.31736 36.7235 8.08801 36.5811 7.91344C36.4387 7.73888 36.2253 7.63759 36 7.63759V8.38759ZM7.15983 8.38759L6.43541 8.58182L7.15983 8.38759ZM1 1V1.75H5.1791V1V0.25H1V1ZM11.9701 26.3289L12.0641 27.073L32.9596 24.4345L32.8657 23.6905L32.7717 22.9464L11.8762 25.5848L11.9701 26.3289ZM32.8657 23.6905L33.6004 23.8409L36.7347 8.53808L36 8.38759L35.2653 8.2371L32.1309 23.54L32.8657 23.6905ZM5.1791 1L4.45469 1.19423L6.43541 8.58182L7.15983 8.38759L7.88424 8.19336L5.90352 0.805774L5.1791 1ZM7.15983 8.38759L6.43541 8.58182L11.2457 26.5231L11.9701 26.3289L12.6946 26.1347L7.88424 8.19336L7.15983 8.38759ZM36 8.38759V7.63759H7.15983V8.38759V9.13759H36V8.38759ZM18.5 33.2379H17.75C17.75 34.3563 16.8545 35.25 15.7656 35.25V36V36.75C17.6971 36.75 19.25 35.1704 19.25 33.2379H18.5ZM15.7656 36V35.25C14.6768 35.25 13.7813 34.3563 13.7813 33.2379H13.0313H12.2813C12.2813 35.1704 13.8341 36.75 15.7656 36.75V36ZM13.0313 33.2379H13.7813C13.7813 32.1195 14.6768 31.2258 15.7656 31.2258V30.4758V29.7258C13.8341 29.7258 12.2813 31.3054 12.2813 33.2379H13.0313ZM15.7656 30.4758V31.2258C16.8545 31.2258 17.75 32.1195 17.75 33.2379H18.5H19.25C19.25 31.3054 17.6971 29.7258 15.7656 29.7258V30.4758ZM33.0833 33.2379H32.3333C32.3333 34.3563 31.4378 35.25 30.349 35.25V36V36.75C32.2804 36.75 33.8333 35.1704 33.8333 33.2379H33.0833ZM30.349 36V35.25C29.2601 35.25 28.3646 34.3563 28.3646 33.2379H27.6146H26.8646C26.8646 35.1704 28.4175 36.75 30.349 36.75V36ZM27.6146 33.2379H28.3646C28.3646 32.1195 29.2601 31.2258 30.349 31.2258V30.4758V29.7258C28.4175 29.7258 26.8646 31.3054 26.8646 33.2379H27.6146ZM30.349 30.4758V31.2258C31.4378 31.2258 32.3333 32.1195 32.3333 33.2379H33.0833H33.8333C33.8333 31.3054 32.2804 29.7258 30.349 29.7258V30.4758Z" fill="white"/>
</svg>
