<svg width="307" height="95" viewBox="0 0 307 95" fill="none" xmlns="http://www.w3.org/2000/svg">
<g clip-path="url(#clip0_13_82)">
<path d="M0 -6.71148e-05H27.5V5.99993C27.5 5.99993 25.7582 6.02512 25 6.99993C24.3887 7.78585 24 8.50428 24 9.49993C24 10.4956 24.3887 11.214 25 11.9999C25.7582 12.9747 26.2651 12.9999 27.5 12.9999C28.7349 12.9999 29.2418 12.9747 30 11.9999C30.6113 11.214 31.083 10.4921 31 9.49993C30.9124 8.45207 30.7435 7.74347 30 6.99993C29.2565 6.25639 27.5 5.99993 27.5 5.99993V-6.71148e-05C27.5 -6.71148e-05 58 -3.91099 58 8C58 15 58 28.9999 58 28.9999C58 28.9999 47.7764 25.6547 41 25.4999C34.4845 25.3511 30.483 25.4158 24.5 27.9999C18.0046 30.8054 14.6307 33.7555 10.5 39.4999C6.24376 45.4189 4.94079 49.7705 4 56.9999C2.95924 64.9976 3.56121 69.9893 6.5 77.4999C9.6022 85.4281 19.5 94.9999 19.5 94.9999H0V-6.71148e-05Z" fill="#F37F36"/>
<g clip-path="url(#clip1_13_82)">
<path d="M10 32H40C40 32 40 38.7042 40 43C38.8284 43.1953 36 43.5 36 43.5C36 43.5 32.154 44.5063 29.5 46.5C27.0714 48.3244 25.2827 50.065 24.5 53C24.0975 54.5094 24 57 24 57H40H55C55 57 55.3565 54.0209 55 52.5C54.3938 49.9143 53.3421 48.4132 51.5 46.5C49.7656 44.6987 48.3476 44.3611 46 43.5C44.1577 42.8242 41.9526 43.1953 40 43C40 38.7042 40 32 40 32H70L63.5 43C63.5 43 64.6399 44.8993 65.5 46.25C66.1571 47.2819 66.5897 47.8476 67 49C67.2824 49.7933 67.3699 50.1994 67.5 51.0975C68.5 58 68 67 68 67H24C24 67 23.9335 69.825 24.5 71.5C25.8299 75.4325 28.5791 77.1362 32.5 78.5C35.2725 79.4644 37.0655 79.5741 40 79.5C43.9477 79.4003 46.4205 79.1676 50 77.5C51.9145 76.6081 55 74 55 74L62.5 82L67.5 92H47H10V32Z" fill="#0F6FD1"/>
</g>
</g>
<path d="M84.2955 59V35.7273H99.4318V39.2614H88.5114V45.5795H98.6477V49.1136H88.5114V55.4659H99.5227V59H84.2955ZM103.733 59V35.7273H107.949V55.4659H118.199V59H103.733ZM121.858 59V35.7273H136.994V39.2614H126.074V45.5795H136.21V49.1136H126.074V55.4659H137.085V59H121.858ZM161.216 43.5795H156.966C156.845 42.8826 156.621 42.2652 156.295 41.7273C155.97 41.1818 155.564 40.7197 155.08 40.3409C154.595 39.9621 154.042 39.678 153.42 39.4886C152.807 39.2917 152.144 39.1932 151.432 39.1932C150.167 39.1932 149.045 39.5114 148.068 40.1477C147.091 40.7765 146.326 41.7008 145.773 42.9205C145.22 44.1326 144.943 45.6136 144.943 47.3636C144.943 49.1439 145.22 50.6439 145.773 51.8636C146.333 53.0758 147.098 53.9924 148.068 54.6136C149.045 55.2273 150.163 55.5341 151.42 55.5341C152.117 55.5341 152.769 55.4432 153.375 55.2614C153.989 55.072 154.538 54.7955 155.023 54.4318C155.515 54.0682 155.928 53.6212 156.261 53.0909C156.602 52.5606 156.837 51.9545 156.966 51.2727L161.216 51.2955C161.057 52.4015 160.712 53.4394 160.182 54.4091C159.659 55.3788 158.973 56.2348 158.125 56.9773C157.277 57.7121 156.284 58.2879 155.148 58.7045C154.011 59.1136 152.75 59.3182 151.364 59.3182C149.318 59.3182 147.492 58.8447 145.886 57.8977C144.28 56.9508 143.015 55.5833 142.091 53.7955C141.167 52.0076 140.705 49.8636 140.705 47.3636C140.705 44.8561 141.17 42.7121 142.102 40.9318C143.034 39.1439 144.303 37.7765 145.909 36.8295C147.515 35.8826 149.333 35.4091 151.364 35.4091C152.659 35.4091 153.864 35.5909 154.977 35.9545C156.091 36.3182 157.083 36.8523 157.955 37.5568C158.826 38.2538 159.542 39.1098 160.102 40.125C160.67 41.1326 161.042 42.2841 161.216 43.5795ZM164.054 39.2614V35.7273H182.622V39.2614H175.429V59H171.247V39.2614H164.054ZM186.202 59V35.7273H194.929C196.717 35.7273 198.217 36.0379 199.429 36.6591C200.649 37.2803 201.569 38.1515 202.19 39.2727C202.819 40.3864 203.134 41.6856 203.134 43.1705C203.134 44.6629 202.815 45.9583 202.179 47.0568C201.55 48.1477 200.622 48.9924 199.395 49.5909C198.168 50.1818 196.66 50.4773 194.872 50.4773H188.656V46.9773H194.304C195.349 46.9773 196.205 46.8333 196.872 46.5455C197.539 46.25 198.031 45.822 198.349 45.2614C198.675 44.6932 198.838 43.9962 198.838 43.1705C198.838 42.3447 198.675 41.6402 198.349 41.0568C198.024 40.4659 197.527 40.0189 196.861 39.7159C196.194 39.4053 195.334 39.25 194.281 39.25H190.418V59H186.202ZM198.224 48.4545L203.986 59H199.281L193.622 48.4545H198.224ZM227.81 47.3636C227.81 49.8712 227.34 52.0189 226.401 53.8068C225.469 55.5871 224.196 56.9508 222.582 57.8977C220.976 58.8447 219.154 59.3182 217.116 59.3182C215.079 59.3182 213.253 58.8447 211.639 57.8977C210.033 56.9432 208.76 55.5758 207.821 53.7955C206.889 52.0076 206.423 49.8636 206.423 47.3636C206.423 44.8561 206.889 42.7121 207.821 40.9318C208.76 39.1439 210.033 37.7765 211.639 36.8295C213.253 35.8826 215.079 35.4091 217.116 35.4091C219.154 35.4091 220.976 35.8826 222.582 36.8295C224.196 37.7765 225.469 39.1439 226.401 40.9318C227.34 42.7121 227.81 44.8561 227.81 47.3636ZM223.571 47.3636C223.571 45.5985 223.295 44.1098 222.741 42.8977C222.196 41.678 221.438 40.7576 220.469 40.1364C219.499 39.5076 218.382 39.1932 217.116 39.1932C215.851 39.1932 214.734 39.5076 213.764 40.1364C212.795 40.7576 212.033 41.678 211.48 42.8977C210.935 44.1098 210.662 45.5985 210.662 47.3636C210.662 49.1288 210.935 50.6212 211.48 51.8409C212.033 53.053 212.795 53.9735 213.764 54.6023C214.734 55.2235 215.851 55.5341 217.116 55.5341C218.382 55.5341 219.499 55.2235 220.469 54.6023C221.438 53.9735 222.196 53.053 222.741 51.8409C223.295 50.6212 223.571 49.1288 223.571 47.3636ZM250.92 35.7273V59H247.17L236.205 43.1477H236.011V59H231.795V35.7273H235.568L246.523 51.5909H246.727V35.7273H250.92ZM259.73 35.7273V59H255.514V35.7273H259.73ZM284.216 43.5795H279.966C279.845 42.8826 279.621 42.2652 279.295 41.7273C278.97 41.1818 278.564 40.7197 278.08 40.3409C277.595 39.9621 277.042 39.678 276.42 39.4886C275.807 39.2917 275.144 39.1932 274.432 39.1932C273.167 39.1932 272.045 39.5114 271.068 40.1477C270.091 40.7765 269.326 41.7008 268.773 42.9205C268.22 44.1326 267.943 45.6136 267.943 47.3636C267.943 49.1439 268.22 50.6439 268.773 51.8636C269.333 53.0758 270.098 53.9924 271.068 54.6136C272.045 55.2273 273.163 55.5341 274.42 55.5341C275.117 55.5341 275.769 55.4432 276.375 55.2614C276.989 55.072 277.538 54.7955 278.023 54.4318C278.515 54.0682 278.928 53.6212 279.261 53.0909C279.602 52.5606 279.837 51.9545 279.966 51.2727L284.216 51.2955C284.057 52.4015 283.712 53.4394 283.182 54.4091C282.659 55.3788 281.973 56.2348 281.125 56.9773C280.277 57.7121 279.284 58.2879 278.148 58.7045C277.011 59.1136 275.75 59.3182 274.364 59.3182C272.318 59.3182 270.492 58.8447 268.886 57.8977C267.28 56.9508 266.015 55.5833 265.091 53.7955C264.167 52.0076 263.705 49.8636 263.705 47.3636C263.705 44.8561 264.17 42.7121 265.102 40.9318C266.034 39.1439 267.303 37.7765 268.909 36.8295C270.515 35.8826 272.333 35.4091 274.364 35.4091C275.659 35.4091 276.864 35.5909 277.977 35.9545C279.091 36.3182 280.083 36.8523 280.955 37.5568C281.826 38.2538 282.542 39.1098 283.102 40.125C283.67 41.1326 284.042 42.2841 284.216 43.5795ZM300.724 42.125C300.618 41.1326 300.171 40.3598 299.384 39.8068C298.603 39.2538 297.588 38.9773 296.338 38.9773C295.459 38.9773 294.705 39.1098 294.077 39.375C293.448 39.6402 292.967 40 292.634 40.4545C292.3 40.9091 292.13 41.428 292.122 42.0114C292.122 42.4962 292.232 42.9167 292.452 43.2727C292.679 43.6288 292.986 43.9318 293.372 44.1818C293.759 44.4242 294.187 44.6288 294.656 44.7955C295.126 44.9621 295.599 45.1023 296.077 45.2159L298.259 45.7614C299.137 45.9659 299.982 46.2424 300.793 46.5909C301.611 46.9394 302.342 47.3788 302.986 47.9091C303.637 48.4394 304.152 49.0795 304.531 49.8295C304.91 50.5795 305.099 51.4583 305.099 52.4659C305.099 53.8295 304.751 55.0303 304.054 56.0682C303.357 57.0985 302.349 57.9053 301.031 58.4886C299.721 59.0644 298.134 59.3523 296.27 59.3523C294.459 59.3523 292.887 59.072 291.554 58.5114C290.228 57.9508 289.19 57.1326 288.44 56.0568C287.698 54.9811 287.296 53.6705 287.236 52.125H291.384C291.444 52.9356 291.694 53.6098 292.134 54.1477C292.573 54.6856 293.145 55.0871 293.849 55.3523C294.562 55.6174 295.357 55.75 296.236 55.75C297.152 55.75 297.955 55.6136 298.645 55.3409C299.342 55.0606 299.887 54.6742 300.281 54.1818C300.675 53.6818 300.876 53.0985 300.884 52.4318C300.876 51.8258 300.698 51.3258 300.349 50.9318C300.001 50.5303 299.512 50.197 298.884 49.9318C298.262 49.6591 297.535 49.4167 296.702 49.2045L294.054 48.5227C292.137 48.0303 290.622 47.2841 289.509 46.2841C288.402 45.2765 287.849 43.9394 287.849 42.2727C287.849 40.9015 288.221 39.7008 288.963 38.6705C289.713 37.6402 290.732 36.8409 292.02 36.2727C293.308 35.697 294.766 35.4091 296.395 35.4091C298.046 35.4091 299.493 35.697 300.736 36.2727C301.986 36.8409 302.967 37.6326 303.679 38.6477C304.391 39.6553 304.759 40.8144 304.781 42.125H300.724Z" fill="white"/>
<defs>
<clipPath id="clip0_13_82">
<rect width="68" height="95" rx="12" fill="white"/>
</clipPath>
<clipPath id="clip1_13_82">
<rect x="10" y="32" width="60" height="60" rx="30" fill="white"/>
</clipPath>
</defs>
</svg>
