<svg width="317" height="443" viewBox="0 0 317 443" fill="none" xmlns="http://www.w3.org/2000/svg">
<g filter="url(#filter0_d_6_121)">
<path d="M274.041 16.703C288.811 15.8135 300.23 29.4646 296.745 43.8446L208.721 407.052C206.031 418.149 195.298 425.344 184.011 423.616L37.4873 401.185C24.6228 399.216 16.27 386.571 19.5078 373.966L104.736 42.1845C107.113 32.9332 115.187 26.2725 124.722 25.6981L274.041 16.703Z" fill="#F37F36" stroke="#020016" stroke-width="12"/>
<rect x="108.545" y="27.4227" width="6.15499" height="277.059" transform="rotate(14.4338 108.545 27.4227)" fill="#F37F36"/>
<path d="M270.507 13.4392C274.36 13.1287 277.736 16.0008 278.046 19.8543L278.708 28.0678L110.743 41.6032L109.519 26.4123L270.507 13.4392Z" fill="#F37F36"/>
<path d="M35.7594 303.079C36.5673 299.729 38.3741 296.704 40.9403 294.405L227.859 126.906C240.235 115.816 259.534 127.243 255.76 143.427L193.591 410.034C191.567 418.714 183.183 424.357 174.379 422.964L31.1875 400.313C21.3863 398.762 14.9909 389.182 17.3177 379.535L35.7594 303.079Z" fill="#FB6E13"/>
<path d="M269.494 89.0759L253.994 151.076L218 136.294L269.494 89.0759Z" fill="#FB6E13"/>
<path d="M257.264 11.5399C274.209 10.1684 287.553 25.7464 283.594 42.2802L196.591 405.641C193.56 418.301 181.321 426.516 168.457 424.526L36.9834 404.192C22.3832 401.934 12.915 387.575 16.5908 373.266L101.939 41.0136C104.593 30.6844 113.507 23.1757 124.137 22.3153L257.264 11.5399Z" stroke="#063958" stroke-width="6"/>
<path d="M205.5 411.935L296.001 34.4354" stroke="#020016" stroke-width="15"/>
<path d="M196 413.935C196 413.935 197.778 410.811 198 410.435C200.895 405.533 211.5 414.435 211.5 414.435L194.5 416.935L196 413.935Z" fill="#020016"/>
<path d="M289.181 39.2641C289.181 39.2641 291.106 37.2062 291.336 36.9506C294.343 33.6178 285 25.4354 285 25.4354C285 25.4354 286.647 30.4694 287 33.4354C287.351 36.3847 287 40.9354 287 40.9354L289.181 39.2641Z" fill="#020016"/>
<path d="M298.5 23.4354C298.5 23.4354 288.103 23.0152 287 14.348C286.453 10.052 264.5 8.93543 264.5 8.93543C264.5 8.93543 277.269 12.691 279.754 14.348C282.225 15.9956 290.805 31.5528 290.805 31.5528L298.5 23.4354Z" fill="#020016"/>
<g opacity="0.43">
<mask id="path-11-inside-1_6_121" fill="white">
<path d="M281.74 88.6812C282.052 87.4409 283.31 86.6882 284.55 86.9999C285.791 87.3117 286.544 88.5699 286.232 89.8103L271.056 150.185C270.744 151.425 269.486 152.178 268.246 151.866C267.005 151.554 266.253 150.296 266.564 149.056L281.74 88.6812Z"/>
</mask>
<path d="M281.74 88.6812C282.052 87.4409 283.31 86.6882 284.55 86.9999C285.791 87.3117 286.544 88.5699 286.232 89.8103L271.056 150.185C270.744 151.425 269.486 152.178 268.246 151.866C267.005 151.554 266.253 150.296 266.564 149.056L281.74 88.6812Z" fill="#135A86"/>
<path d="M282.305 86.4354L286.796 87.5645L282.305 86.4354ZM270.492 152.431L266 151.302L270.492 152.431ZM268.246 151.866C266.47 151.42 265.392 149.618 265.838 147.842L280.527 89.4073C280.973 87.6314 282.775 86.5535 284.55 86.9999C283.846 86.8228 283.022 87.6847 282.71 88.925L267.534 149.3C267.222 150.54 267.541 151.689 268.246 151.866ZM286.796 87.5645L270.492 152.431L286.796 87.5645Z" fill="#018EF0" mask="url(#path-11-inside-1_6_121)"/>
</g>
<path d="M260.207 15.8115C273.439 14.7517 283.84 26.9358 280.716 39.8379L192.094 405.848C189.705 415.712 180.15 422.095 170.123 420.523L36.5264 399.59C25.1727 397.811 17.8118 386.648 20.6484 375.512L105.747 41.4209C107.805 33.3401 114.775 27.4618 123.087 26.7959L260.207 15.8115Z" stroke="#032235" stroke-width="3"/>
<ellipse cx="183.665" cy="35.6936" rx="3.62088" ry="5" transform="rotate(8.08421 183.665 35.6936)" fill="black"/>
<path d="M184.298 31.2383C185.09 31.3508 185.787 31.9011 186.255 32.7867C186.722 33.6718 186.936 34.8584 186.755 36.1325C186.574 37.4067 186.038 38.4867 185.343 39.2067C184.647 39.9271 183.824 40.2612 183.032 40.1489C182.241 40.0365 181.543 39.4861 181.075 38.6005C180.608 37.7154 180.394 36.5289 180.575 35.2547C180.756 33.9805 181.292 32.9005 181.987 32.1806C182.683 31.4601 183.506 31.1259 184.298 31.2383Z" stroke="white" stroke-opacity="0.25"/>
</g>
<defs>
<filter id="filter0_d_6_121" x="0.8" y="0.8" width="315.9" height="441.835" filterUnits="userSpaceOnUse" color-interpolation-filters="sRGB">
<feFlood flood-opacity="0" result="BackgroundImageFix"/>
<feColorMatrix in="SourceAlpha" type="matrix" values="0 0 0 0 0 0 0 0 0 0 0 0 0 0 0 0 0 0 127 0" result="hardAlpha"/>
<feOffset dy="4"/>
<feGaussianBlur stdDeviation="2.6"/>
<feComposite in2="hardAlpha" operator="out"/>
<feColorMatrix type="matrix" values="0 0 0 0 0 0 0 0 0 0 0 0 0 0 0 0 0 0 0.47 0"/>
<feBlend mode="normal" in2="BackgroundImageFix" result="effect1_dropShadow_6_121"/>
<feBlend mode="normal" in="SourceGraphic" in2="effect1_dropShadow_6_121" result="shape"/>
</filter>
</defs>
</svg>
