<svg width="40" height="40" viewBox="0 0 40 40" fill="none" xmlns="http://www.w3.org/2000/svg">
<path d="M11 23H29L30.5 29L29 35H11L10 29L11 23Z" fill="white"/>
<circle cx="7" cy="7" r="7" transform="matrix(1 0 0 -1 13 18)" fill="white"/>
<path d="M20.2667 18.1167C20.1 18.1 19.9 18.1 19.7167 18.1167C15.75 17.9834 12.6 14.7334 12.6 10.7334C12.6 6.65004 15.9 3.33337 20 3.33337C24.0833 3.33337 27.4 6.65004 27.4 10.7334C27.3833 14.7334 24.2333 17.9834 20.2667 18.1167Z" stroke="white" stroke-width="3" stroke-linecap="round" stroke-linejoin="round"/>
<path d="M11.9333 24.2667C7.89999 26.9667 7.89999 31.3667 11.9333 34.05C16.5167 37.1167 24.0333 37.1167 28.6167 34.05C32.65 31.35 32.65 26.95 28.6167 24.2667C24.05 21.2167 16.5333 21.2167 11.9333 24.2667Z" stroke="white" stroke-width="3" stroke-linecap="round" stroke-linejoin="round"/>
</svg>
