<svg width="45" height="45" viewBox="0 0 45 45" fill="none" xmlns="http://www.w3.org/2000/svg">
<g clip-path="url(#clip0_51_367)">
<path opacity="0.4" d="M22.5 45C34.9263 45 45 34.9265 45 22.5C45 10.0736 34.9263 0 22.5 0C10.0736 0 0 10.0736 0 22.5C0 34.9265 10.0736 45 22.5 45Z" fill="#0F6FD1"/>
<path d="M23 10C18.5781 10 14.9893 13.5888 14.9893 18.0106C14.9893 22.3471 18.3858 25.8718 22.8932 26C22.9573 26 23.0427 26 23.0854 26C23.1282 26 23.1922 26 23.235 26C23.2563 26 23.2777 26 23.2777 26C27.5928 25.8505 30.9893 22.3471 31.0107 18.0106C31.0107 13.5888 27.4219 10 23 10Z" fill="#0F6FD1"/>
<path d="M37.7999 37.7599C33.7831 41.6836 28.4123 44.1 22.4999 44.1C16.5876 44.1 11.2168 41.6836 7.19995 37.7599C7.74154 35.5828 9.20836 33.597 11.3522 32.0658C17.5128 27.7115 27.5323 27.7115 33.6477 32.0658C35.8141 33.597 37.2584 35.5828 37.7999 37.7599Z" fill="#0F6FD1"/>
</g>
<defs>
<clipPath id="clip0_51_367">
<rect width="45" height="45" fill="white"/>
</clipPath>
</defs>
</svg>
