<svg width="70" height="77" viewBox="0 0 70 77" fill="none" xmlns="http://www.w3.org/2000/svg">
<mask id="path-1-inside-1_155_304" fill="white">
<path d="M1.43726 33.2605H69.4044V61.8937C69.4044 70.1779 62.6887 76.8937 54.4044 76.8937H16.4373C8.15298 76.8937 1.43726 70.1779 1.43726 61.8937V33.2605Z"/>
</mask>
<path d="M1.43726 33.2605H69.4044H1.43726ZM74.4044 61.8937C74.4044 72.9394 65.4501 81.8937 54.4044 81.8937H16.4373C5.39156 81.8937 -3.56274 72.9394 -3.56274 61.8937H6.43726C6.43726 67.4165 10.9144 71.8937 16.4373 71.8937H54.4044C59.9272 71.8937 64.4044 67.4165 64.4044 61.8937H74.4044ZM16.4373 81.8937C5.39156 81.8937 -3.56274 72.9394 -3.56274 61.8937V33.2605H6.43726V61.8937C6.43726 67.4165 10.9144 71.8937 16.4373 71.8937V81.8937ZM74.4044 33.2605V61.8937C74.4044 72.9394 65.4501 81.8937 54.4044 81.8937V71.8937C59.9272 71.8937 64.4044 67.4165 64.4044 61.8937V33.2605H74.4044Z" fill="#135A86" mask="url(#path-1-inside-1_155_304)"/>
<path d="M35.4209 35.7605C42.6134 35.7605 48.4443 41.5913 48.4443 48.7839C48.4443 55.9765 42.6134 61.8073 35.4209 61.8074C28.2283 61.8074 22.3975 55.9765 22.3975 48.7839C22.3975 41.5913 28.2283 35.7605 35.4209 35.7605Z" stroke="#135A86" stroke-width="5"/>
<path d="M51.3463 21.4959C52.727 21.5056 53.854 20.3941 53.8636 19.0134C53.8733 17.6327 52.7618 16.5057 51.3811 16.4961L51.3463 21.4959ZM11.0869 19.8351L11.8398 22.219L11.0869 19.8351ZM3.53431 34.9384C6.03293 34.8553 6.03295 34.856 6.03297 34.8567C6.03298 34.8569 6.033 34.8575 6.03301 34.8578C6.03303 34.8585 6.03305 34.859 6.03306 34.8593C6.03307 34.8599 6.03307 34.8597 6.03304 34.8588C6.03299 34.857 6.03287 34.8523 6.03269 34.8448C6.03235 34.8297 6.03182 34.8033 6.03137 34.7663C6.03047 34.6921 6.0299 34.5756 6.03171 34.4222C6.03533 34.1148 6.04849 33.6622 6.08732 33.107C6.16557 31.9883 6.34526 30.4954 6.74225 28.9545C7.5734 25.7284 9.13111 23.0744 11.8398 22.219L11.0869 19.8351L10.3341 17.4511C5.07126 19.1131 2.85265 24.0107 1.90036 27.707C1.40563 29.6273 1.19183 31.4383 1.09951 32.7581C1.05306 33.4222 1.03666 33.9725 1.03206 34.3632C1.02975 34.5589 1.03039 34.7152 1.03174 34.8267C1.03241 34.8824 1.03326 34.927 1.03401 34.9597C1.03439 34.9761 1.03474 34.9895 1.03503 34.9998C1.03518 35.005 1.03531 35.0094 1.03542 35.013C1.03548 35.0148 1.03553 35.0165 1.03557 35.0179C1.0356 35.0186 1.03563 35.0195 1.03564 35.0199C1.03567 35.0208 1.0357 35.0216 3.53431 34.9384ZM11.0869 19.8351L11.8398 22.219C11.8267 22.2231 11.9824 22.1814 12.4251 22.1253C12.8245 22.0747 13.3495 22.0251 13.9957 21.9779C15.2858 21.8836 16.9702 21.805 18.926 21.7405C22.8327 21.6115 27.734 21.5411 32.545 21.5047C37.3522 21.4684 42.0531 21.4662 45.5533 21.4731C47.3031 21.4765 48.7521 21.4822 49.7633 21.4871C50.2689 21.4895 50.6651 21.4918 50.9346 21.4934C51.0694 21.4942 51.1725 21.4948 51.2418 21.4953C51.2765 21.4955 51.3027 21.4957 51.3202 21.4958C51.329 21.4958 51.3355 21.4959 51.3399 21.4959C51.3421 21.4959 51.3437 21.4959 51.3448 21.4959C51.3453 21.4959 51.3457 21.4959 51.3459 21.4959C51.3462 21.4959 51.3463 21.4959 51.3637 18.996C51.3811 16.4961 51.3809 16.4961 51.3806 16.4961C51.3803 16.4961 51.3799 16.4961 51.3793 16.4961C51.3781 16.496 51.3764 16.496 51.3741 16.496C51.3695 16.496 51.3628 16.4959 51.3538 16.4959C51.3359 16.4958 51.3093 16.4956 51.2742 16.4954C51.204 16.4949 51.1 16.4943 50.9644 16.4934C50.693 16.4918 50.295 16.4896 49.7873 16.4872C48.7721 16.4823 47.3183 16.4765 45.5632 16.4731C42.0535 16.4662 37.3356 16.4683 32.5072 16.5048C27.6825 16.5413 22.7314 16.6121 18.761 16.7432C16.7783 16.8087 15.018 16.8898 13.6312 16.9912C12.3686 17.0834 11.1008 17.209 10.3341 17.4511L11.0869 19.8351Z" fill="#135A86"/>
<path d="M52.9189 27.0899L59.6317 33.8027" stroke="#135A86" stroke-width="5" stroke-linecap="round"/>
<path d="M24.0928 11.4439H46.7485" stroke="#135A86" stroke-width="5" stroke-linecap="round"/>
</svg>
