<svg width="81" height="76" viewBox="0 0 81 76" fill="none" xmlns="http://www.w3.org/2000/svg">
<path d="M17.7142 8.03806C17.7142 3.61979 21.296 0.0380554 25.7142 0.0380554H55.8647C60.283 0.0380554 63.8647 3.61978 63.8647 8.03806V50.7405C63.8647 52.3973 62.5216 53.7405 60.8647 53.7405H20.7142C19.0574 53.7405 17.7142 52.3974 17.7142 50.7405V8.03806Z" fill="#135A86"/>
<mask id="path-2-inside-1_155_331" fill="white">
<path d="M18.5529 57.0968H63.8643V67.5571C63.8643 71.9753 60.2826 75.5571 55.8643 75.5571H26.5529C22.1346 75.5571 18.5529 71.9753 18.5529 67.5571V57.0968Z"/>
</mask>
<path d="M18.5529 57.0968H63.8643V67.5571C63.8643 71.9753 60.2826 75.5571 55.8643 75.5571H26.5529C22.1346 75.5571 18.5529 71.9753 18.5529 67.5571V57.0968Z" stroke="#135A86" stroke-width="18.4602" mask="url(#path-2-inside-1_155_331)"/>
<path d="M78.1292 18.0615C79.5099 18.0615 80.6292 16.9422 80.6292 15.5615C80.6292 14.1808 79.5099 13.0615 78.1292 13.0615V18.0615ZM67.2209 15.5615V18.0615H78.1292V15.5615V13.0615H67.2209V15.5615Z" fill="#135A86"/>
<path d="M3.44913 18.0615C2.06842 18.0615 0.949132 16.9422 0.949132 15.5615C0.949132 14.1808 2.06842 13.0615 3.44913 13.0615V18.0615ZM14.3574 15.5615V18.0615H3.44913V15.5615V13.0615H14.3574V15.5615Z" fill="#135A86"/>
</svg>
