<svg width="25" height="25" viewBox="0 0 25 25" fill="none" xmlns="http://www.w3.org/2000/svg">
<path opacity="0.4" d="M16.688 4.6437L13.4588 2.1437C13.0421 1.72703 12.1046 1.5187 11.4796 1.5187H7.52129C6.27129 1.5187 4.91713 2.4562 4.60463 3.7062L2.10463 11.3104C1.58379 12.7687 2.52129 14.0187 4.08379 14.0187H8.25046C8.87546 14.0187 9.39629 14.5396 9.29212 15.2687L8.77129 18.6021C8.56296 19.5396 9.18796 20.5812 10.1255 20.8937C10.9588 21.2062 12.0005 20.7896 12.4171 20.1646L16.688 13.8104" stroke="black" stroke-width="2" stroke-miterlimit="10"/>
<path d="M22 5.8125V16.0208C22 17.4792 21.375 18 19.9167 18H18.875C17.4167 18 16.7917 17.4792 16.7917 16.0208V5.8125C16.7917 4.35417 17.4167 3.83333 18.875 3.83333H19.9167C21.375 3.83333 22 4.35417 22 5.8125Z" stroke="#989898" stroke-width="2" stroke-linecap="round" stroke-linejoin="round"/>
</svg>
