<svg width="110" height="64" viewBox="0 0 110 64" fill="none" xmlns="http://www.w3.org/2000/svg">
<path d="M27.0975 61.2632C27.0975 62.6439 28.2168 63.7632 29.5975 63.7632C30.9782 63.7631 32.0975 62.6439 32.0975 61.2631L27.0975 61.2632ZM30.4366 41.1247L32.883 41.6398L30.4366 41.1247ZM37.1494 29.3773L35.4217 27.5704L35.4217 27.5704L37.1494 29.3773ZM45.1208 24.3427L44.4023 21.9482L45.1208 24.3427ZM29.5975 61.2632L32.0975 61.2631C32.0975 52.9446 31.2762 49.2716 32.883 41.6398L30.4366 41.1247L27.9902 40.6097C26.2405 48.9208 27.0975 53.6388 27.0975 61.2632L29.5975 61.2632ZM30.4366 41.1247L32.883 41.6398C33.3875 39.2432 34.0323 37.485 34.9311 35.9366C35.8358 34.3783 37.0642 32.9177 38.8771 31.1843L37.1494 29.3773L35.4217 27.5704C33.4156 29.4886 31.8319 31.3164 30.607 33.4263C29.3764 35.5461 28.5742 37.8358 27.9902 40.6097L30.4366 41.1247ZM37.1494 29.3773L38.8771 31.1843C41.4143 28.7582 42.8585 27.6317 45.8394 26.7373L45.1208 24.3427L44.4023 21.9482C40.33 23.1702 38.2068 24.9073 35.4217 27.5704L37.1494 29.3773ZM45.1208 24.3427L45.8394 26.7373C48.5944 25.9105 50.212 25.8297 53.0357 26.3774L53.5118 23.9232L53.9879 21.4689C50.3698 20.7671 47.9324 20.8889 44.4023 21.9482L45.1208 24.3427Z" fill="#135A86"/>
<path d="M82.653 61.2632C82.653 62.6439 81.5337 63.7632 80.153 63.7632C78.7723 63.7631 77.653 62.6439 77.653 61.2631L82.653 61.2632ZM79.3139 41.1247L76.8675 41.6398L79.3139 41.1247ZM72.6011 29.3773L74.3288 27.5704L74.3288 27.5704L72.6011 29.3773ZM64.6297 24.3427L65.3482 21.9482L64.6297 24.3427ZM80.153 61.2632L77.653 61.2631C77.653 52.9446 78.4742 49.2716 76.8675 41.6398L79.3139 41.1247L81.7603 40.6097C83.51 48.9208 82.653 53.6388 82.653 61.2632L80.153 61.2632ZM79.3139 41.1247L76.8675 41.6398C76.363 39.2432 75.7182 37.485 74.8193 35.9366C73.9147 34.3783 72.6863 32.9177 70.8734 31.1843L72.6011 29.3773L74.3288 27.5704C76.3349 29.4886 77.9186 31.3164 79.1435 33.4263C80.3741 35.5461 81.1763 37.8358 81.7603 40.6097L79.3139 41.1247ZM72.6011 29.3773L70.8734 31.1843C68.3362 28.7582 66.892 27.6317 63.9111 26.7373L64.6297 24.3427L65.3482 21.9482C69.4205 23.1702 71.5437 24.9073 74.3288 27.5704L72.6011 29.3773ZM64.6297 24.3427L63.9111 26.7373C61.1561 25.9105 59.5385 25.8297 56.7147 26.3774L56.2387 23.9232L55.7626 21.4689C59.3807 20.7671 61.8181 20.8889 65.3482 21.9482L64.6297 24.3427Z" fill="#135A86"/>
<path d="M54.3511 38.5904C58.0678 38.5906 61.0806 41.604 61.0806 45.3208C61.0804 49.0375 58.0677 52.0501 54.3511 52.0503C50.6343 52.0503 47.6208 49.0376 47.6206 45.3208C47.6206 41.6039 50.6341 38.5904 54.3511 38.5904Z" stroke="#135A86" stroke-width="5"/>
<line x1="14.9136" y1="15.0071" x2="94.6282" y2="15.0071" stroke="#135A86" stroke-width="5"/>
<ellipse cx="19.1094" cy="15.9519" rx="5.8737" ry="5.8737" fill="#135A86"/>
<ellipse cx="89.5928" cy="15.9519" rx="5.8737" ry="5.8737" fill="#135A86"/>
<path d="M18.6891 6.72195V14.2739" stroke="#135A86" stroke-width="5" stroke-linecap="round"/>
<path d="M90.0127 6.72195V14.2739" stroke="#135A86" stroke-width="5" stroke-linecap="round"/>
<path d="M3.16565 2.94562H35.0514" stroke="#135A86" stroke-width="5" stroke-linecap="round"/>
<path d="M75.3287 2.94562H107.215" stroke="#135A86" stroke-width="5" stroke-linecap="round"/>
<path d="M47.466 14.9646C47.466 14.9646 47.4659 13.015 47.466 5.88259C47.466 4.89082 47.9056 3.78485 48.8974 3.78484C51.4146 3.78481 55.1906 3.78484 55.1906 3.78484" stroke="#135A86" stroke-width="5"/>
<path d="M61.584 14.9646C61.584 14.9646 61.584 13.015 61.584 5.88259C61.584 4.89082 61.1443 3.78485 60.1526 3.78484C57.6353 3.78481 53.5116 3.78484 53.5116 3.78484" stroke="#135A86" stroke-width="5"/>
<path d="M29.1783 14.1507H54.3514V22.1603V30.9327H43.8626C43.8626 30.9327 42.4859 24.637 39.6671 21.3975C36.4752 17.7293 29.1783 14.1507 29.1783 14.1507Z" fill="#135A86"/>
<path d="M79.5237 14.1507H54.3507V22.1603V30.9327H64.8394C64.8394 30.9327 66.2161 24.637 69.0349 21.3975C72.2268 17.7293 79.5237 14.1507 79.5237 14.1507Z" fill="#135A86"/>
</svg>
