<svg width="67" height="71" viewBox="0 0 67 71" fill="none" xmlns="http://www.w3.org/2000/svg">
<path d="M62.5282 41.7609L55.5467 39.1544L51.054 41.3282L43.3798 63.3939L46.3166 68.1033L53.5128 69.0185L60.889 63.3939L63.9377 52.1604L62.5282 41.7609Z" fill="#BFCCF4"/>
<path d="M3.79124 41.3411L12.8067 39.5737L15.2654 40.9084L23.2414 66.0053L16.1091 68.5226L10.6549 67.6835L5.43041 62.9741L2.68347 52.1602L3.79124 41.3411Z" fill="#BFCCF4"/>
<path d="M11.4376 39.1137C13.4539 38.8975 15.4657 40.3934 16.1915 42.85L20.1232 56.1596L20.1613 56.2885L20.2169 56.4106L21.9523 60.2836C23.7201 64.2274 20.8688 68.6661 16.5773 68.6879C15.5511 68.6931 14.5597 68.6967 13.6505 68.6967C12.0377 68.6967 11.37 68.6564 10.8214 68.4867C10.3309 68.335 9.78687 68.0279 8.64465 67.0678C6.9909 65.6777 5.90393 64.4315 4.922 62.6137C3.61377 60.1917 3.67307 58.637 3.02942 55.2221C2.1713 50.6693 1.52931 47.9552 3.24133 44.7992C4.19419 43.0429 4.93987 42.0441 5.79504 41.3285C6.64694 40.6158 7.75378 40.0613 9.64465 39.4565C10.1236 39.3033 10.7363 39.1889 11.4376 39.1137Z" stroke="#135A86" stroke-width="4"/>
<path d="M55.3013 39.2419C53.285 39.0257 51.2732 40.5217 50.5474 42.9782L46.6157 56.2878L46.5776 56.4167L46.522 56.5388L44.7866 60.4118C43.0188 64.3557 45.8701 68.7943 50.1616 68.8161C51.1878 68.8213 52.1791 68.8249 53.0884 68.8249C54.7012 68.8249 55.3689 68.7846 55.9175 68.615C56.4079 68.4632 56.952 68.1561 58.0942 67.196C59.748 65.8059 60.835 64.5597 61.8169 62.7419C63.1251 60.3199 63.0658 58.7653 63.7095 55.3503C64.5676 50.7975 65.2096 48.0834 63.4976 44.9275C62.5447 43.1711 61.799 42.1723 60.9438 41.4568C60.092 40.744 58.9851 40.1895 57.0942 39.5847C56.6153 39.4315 56.0026 39.3171 55.3013 39.2419Z" stroke="#135A86" stroke-width="4"/>
<mask id="path-5-inside-1_155_312" fill="white">
<path d="M1.00525 33.2803C1.00525 15.2069 15.6567 0.55542 33.7301 0.55542V0.55542C51.8036 0.55542 66.455 15.2068 66.455 33.2803V37.4758H1.00525V33.2803Z"/>
</mask>
<path d="M-3.99475 33.2803C-3.99475 12.4454 12.8953 -4.44458 33.7301 -4.44458C54.565 -4.44458 71.455 12.4454 71.455 33.2803H61.455C61.455 17.9683 49.0422 5.55542 33.7301 5.55542C18.4181 5.55542 6.00525 17.9683 6.00525 33.2803H-3.99475ZM66.455 37.4758H1.00525H66.455ZM-3.99475 37.4758V33.2803C-3.99475 12.4454 12.8953 -4.44458 33.7301 -4.44458V5.55542C18.4181 5.55542 6.00525 17.9683 6.00525 33.2803V37.4758H-3.99475ZM33.7301 -4.44458C54.565 -4.44458 71.455 12.4454 71.455 33.2803V37.4758H61.455V33.2803C61.455 17.9683 49.0422 5.55542 33.7301 5.55542V-4.44458Z" fill="#135A86" mask="url(#path-5-inside-1_155_312)"/>
</svg>
