<svg width="25" height="25" viewBox="0 0 25 25" fill="none" xmlns="http://www.w3.org/2000/svg">
<path opacity="0.4" d="M7.31201 18.3563L10.5412 20.8563C10.9579 21.273 11.8954 21.4813 12.5204 21.4813H16.4787C17.7287 21.4813 19.0829 20.5438 19.3954 19.2938L21.8954 11.6896C22.4162 10.2313 21.4787 8.98127 19.9162 8.98127H15.7495C15.1245 8.98127 14.6037 8.46044 14.7079 7.73127L15.2287 4.39794C15.437 3.46044 14.812 2.41877 13.8745 2.10627C13.0412 1.79377 11.9995 2.21044 11.5829 2.83544L7.31201 9.1896" stroke="black" stroke-width="2" stroke-miterlimit="10"/>
<path d="M2 17.1875V6.97917C2 5.52083 2.625 5 4.08333 5H5.125C6.58333 5 7.20833 5.52083 7.20833 6.97917V17.1875C7.20833 18.6458 6.58333 19.1667 5.125 19.1667H4.08333C2.625 19.1667 2 18.6458 2 17.1875Z" stroke="#989898" stroke-width="2" stroke-linecap="round" stroke-linejoin="round"/>
</svg>
