<svg width="96" height="71" viewBox="0 0 96 71" fill="none" xmlns="http://www.w3.org/2000/svg">
<path d="M0.200684 32.2112C0.200684 26.6884 4.67784 22.2112 10.2007 22.2112H85.019C90.5419 22.2112 95.019 26.6884 95.019 32.2112V46.5451H0.200684V32.2112Z" fill="#135A86"/>
<path d="M0.200684 29.763H15.3045V64.1661H10.2007C4.67784 64.1661 0.200684 59.689 0.200684 54.1661V29.763Z" fill="#135A86"/>
<path d="M95.0187 29.763H79.9149V64.1661H85.0187C90.5415 64.1661 95.0187 59.689 95.0187 54.1661V29.763Z" fill="#135A86"/>
<mask id="path-4-inside-1_155_338" fill="white">
<rect x="20.339" y="51.5797" width="53.7024" height="18.4602" rx="5"/>
</mask>
<rect x="20.339" y="51.5797" width="53.7024" height="18.4602" rx="5" stroke="#135A86" stroke-width="16" mask="url(#path-4-inside-1_155_338)"/>
<mask id="path-5-inside-2_155_338" fill="white">
<path d="M20.339 5.39455C20.339 2.63312 22.5776 0.394547 25.339 0.394547H69.8805C72.6419 0.394547 74.8805 2.63312 74.8805 5.39455V18.0157H20.339V5.39455Z"/>
</mask>
<path d="M15.339 5.39455C15.339 -0.128301 19.8161 -4.60545 25.339 -4.60545H69.8805C75.4033 -4.60545 79.8805 -0.128301 79.8805 5.39455H69.8805H25.339H15.339ZM74.8805 18.0157H20.339H74.8805ZM15.339 18.0157V5.39455C15.339 -0.128301 19.8161 -4.60545 25.339 -4.60545V5.39455V18.0157H15.339ZM69.8805 -4.60545C75.4033 -4.60545 79.8805 -0.128301 79.8805 5.39455V18.0157H69.8805V5.39455V-4.60545Z" fill="#135A86" mask="url(#path-5-inside-2_155_338)"/>
</svg>
