<svg width="57" height="88" viewBox="0 0 57 88" fill="none" xmlns="http://www.w3.org/2000/svg">
<rect x="3.19873" y="20.7356" width="44.5069" height="47.0242" rx="5.5" stroke="#135A86" stroke-width="5"/>
<mask id="path-2-inside-1_155_321" fill="white">
<path d="M10.7682 44.6672C10.7682 37.0207 16.9669 30.8221 24.6133 30.8221H25.4525C33.0989 30.8221 39.2976 37.0207 39.2976 44.6672V44.6672C39.2976 52.3137 33.0989 58.5124 25.4525 58.5124H24.6133C16.9669 58.5124 10.7682 52.3137 10.7682 44.6672V44.6672Z"/>
</mask>
<path d="M5.76819 42.1672C5.76819 33.14 13.0862 25.8221 22.1133 25.8221H27.9525C36.9796 25.8221 44.2976 33.14 44.2976 42.1672L34.2976 44.6672C34.2976 39.7822 30.3375 35.8221 25.4525 35.8221H24.6133C19.7283 35.8221 15.7682 39.7822 15.7682 44.6672L5.76819 42.1672ZM39.2976 58.5124H10.7682H39.2976ZM22.1133 58.5124C13.0862 58.5124 5.76819 51.1944 5.76819 42.1672C5.76819 33.14 13.0862 25.8221 22.1133 25.8221L24.6133 35.8221C19.7283 35.8221 15.7682 39.7822 15.7682 44.6672V44.6672C15.7682 52.3137 19.7283 58.5124 24.6133 58.5124H22.1133ZM27.9525 25.8221C36.9796 25.8221 44.2976 33.14 44.2976 42.1672C44.2976 51.1944 36.9796 58.5124 27.9525 58.5124H25.4525C30.3375 58.5124 34.2976 52.3137 34.2976 44.6672V44.6672C34.2976 39.7822 30.3375 35.8221 25.4525 35.8221L27.9525 25.8221Z" fill="#135A86" mask="url(#path-2-inside-1_155_321)"/>
<path d="M54.4009 33.3393V45.0867" stroke="#135A86" stroke-width="5" stroke-linecap="round"/>
<path d="M10.3483 22.0117C10.3483 22.0117 8.9114 11.96 11.1874 8.16655C12.446 6.06877 24.613 6.06879 24.613 6.06879" stroke="#135A86" stroke-width="5"/>
<path d="M39.183 22.0116C39.183 22.0116 40.6198 11.9599 38.3439 8.16647C37.0852 6.06869 24.6135 6.06869 24.6135 6.06869" stroke="#135A86" stroke-width="5"/>
<path d="M10.3483 66.0613C10.3483 66.0613 8.9114 76.1131 11.1874 79.9065C12.446 82.0043 24.613 82.0043 24.613 82.0043" stroke="#135A86" stroke-width="5"/>
<path d="M39.183 66.0612C39.183 66.0612 40.6198 76.1129 38.3439 79.9063C37.0852 82.0041 24.6135 82.0041 24.6135 82.0041" stroke="#135A86" stroke-width="5"/>
</svg>
