<svg width="40" height="40" viewBox="0 0 40 40" fill="none" xmlns="http://www.w3.org/2000/svg">
<path d="M27.5001 11.25H32.6201C32.9298 11.2503 33.2283 11.3655 33.4579 11.5734C33.6874 11.7812 33.8316 12.0669 33.8626 12.375L34.6251 20H32.1101L31.4851 13.75H27.5001V17.5C27.5001 17.8315 27.3684 18.1495 27.134 18.3839C26.8996 18.6183 26.5816 18.75 26.2501 18.75C25.9186 18.75 25.6006 18.6183 25.3662 18.3839C25.1318 18.1495 25.0001 17.8315 25.0001 17.5V13.75H15.0001V17.5C15.0001 17.8315 14.8684 18.1495 14.634 18.3839C14.3996 18.6183 14.0816 18.75 13.7501 18.75C13.4186 18.75 13.1007 18.6183 12.8662 18.3839C12.6318 18.1495 12.5001 17.8315 12.5001 17.5V13.75H8.51261L6.51261 33.75H20.0001V36.25H5.13011C4.95552 36.2498 4.78291 36.2131 4.62338 36.1421C4.46386 36.0712 4.32096 35.9676 4.20391 35.8381C4.08685 35.7085 3.99823 35.5559 3.94376 35.39C3.88928 35.2242 3.87015 35.0487 3.88761 34.875L6.13761 12.375C6.16858 12.0669 6.31281 11.7812 6.54236 11.5734C6.77192 11.3655 7.07045 11.2503 7.38011 11.25H12.5001V10.3775C12.5001 6.0425 15.8401 2.5 20.0001 2.5C24.1601 2.5 27.5001 6.0425 27.5001 10.3775V11.2525V11.25ZM25.0001 11.25V10.3775C25.0001 7.3925 22.7451 5 20.0001 5C17.2551 5 15.0001 7.3925 15.0001 10.3775V11.2525H25.0001V11.25ZM32.8676 29.85C32.9816 29.7259 33.1196 29.6262 33.2731 29.5568C33.4267 29.4874 33.5927 29.4498 33.7612 29.4462C33.9296 29.4425 34.0971 29.473 34.2535 29.5358C34.4099 29.5986 34.552 29.6923 34.6712 29.8114C34.7904 29.9304 34.8844 30.0724 34.9473 30.2287C35.0103 30.385 35.0411 30.5524 35.0377 30.7209C35.0343 30.8894 34.9969 31.0554 34.9277 31.2091C34.8586 31.3627 34.759 31.5008 34.6351 31.615L29.6351 36.615C29.4007 36.8493 29.0828 36.981 28.7514 36.981C28.4199 36.981 28.102 36.8493 27.8676 36.615L22.8676 31.615C22.7482 31.4997 22.653 31.3618 22.5875 31.2093C22.522 31.0568 22.4875 30.8927 22.4861 30.7268C22.4846 30.5608 22.5162 30.3962 22.5791 30.2426C22.6419 30.0889 22.7348 29.9494 22.8521 29.832C22.9695 29.7146 23.1091 29.6218 23.2627 29.559C23.4163 29.4961 23.5809 29.4645 23.7469 29.4659C23.9128 29.4674 24.0769 29.5019 24.2294 29.5674C24.3819 29.6329 24.5198 29.7281 24.6351 29.8475L27.5001 32.715V23.75C27.5001 23.4185 27.6318 23.1005 27.8662 22.8661C28.1006 22.6317 28.4186 22.5 28.7501 22.5C29.0816 22.5 29.3996 22.6317 29.634 22.8661C29.8684 23.1005 30.0001 23.4185 30.0001 23.75V32.715L32.8676 29.8475V29.85Z" fill="#FB6E13"/>
</svg>
